<?xml version="1.0" standalone="no"?>
<svg xmlns:xlink="http://www.w3.org/1999/xlink" id="wave" style="transform:rotate(0deg); transition: 0.3s" viewBox="0 0 1440 490" version="1.1" xmlns="http://www.w3.org/2000/svg"><defs><linearGradient id="sw-gradient-0" x1="0" x2="0" y1="1" y2="0"><stop stop-color="rgba(227, 34, 7, 1)" offset="0%"/><stop stop-color="rgba(227, 34, 7, 1)" offset="100%"/></linearGradient></defs><path style="transform:translate(0, 0px); opacity:1" fill="url(#sw-gradient-0)" d="M0,245L480,294L960,245L1440,147L1920,441L2400,245L2880,392L3360,147L3840,343L4320,49L4800,49L5280,98L5760,49L6240,245L6720,147L7200,343L7680,0L8160,343L8640,245L9120,392L9600,147L10080,392L10560,245L11040,196L11520,343L11520,490L11040,490L10560,490L10080,490L9600,490L9120,490L8640,490L8160,490L7680,490L7200,490L6720,490L6240,490L5760,490L5280,490L4800,490L4320,490L3840,490L3360,490L2880,490L2400,490L1920,490L1440,490L960,490L480,490L0,490Z"/></svg>